<svg xmlns="http://www.w3.org/2000/svg" width="20" height="20" viewBox="0 0 20 20">
    <g fill="none" fill-rule="evenodd">
        <path fill="#F7931A" d="M19.7 12.42c-1.334 5.359-6.761 8.619-12.12 7.283C2.224 18.367-1.037 12.941.3 7.583 1.635 2.225 7.06-1.036 12.418.299c5.358 1.336 8.618 6.764 7.283 12.121"/>
        <path fill="#FFF" d="M12.358 8.524c-.322 1.272-2.319.626-2.966.468l.57-2.25c.649.159 2.733.455 2.396 1.782m-.354 3.629c-.354 1.397-2.752.641-3.53.452l.63-2.479c.778.19 3.27.568 2.9 2.027m2.62-3.609c.208-1.367-.85-2.1-2.299-2.59l.47-1.85-1.146-.282-.457 1.803a42.084 42.084 0 0 0-.92-.213l.461-1.813-1.147-.282-.47 1.85c-.248-.055-.493-.11-.732-.168l.002-.006-1.581-.389L6.5 5.808s.85.192.832.203c.465.114.548.415.535.655l-.535 2.108c.032.009.072.02.119.038l-.121-.03-.75 2.954c-.058.138-.202.345-.527.266.013.016-.832-.205-.832-.205l-.57 1.29 1.493.367c.277.067.548.138.817.207l-.474 1.872 1.144.28.47-1.853c.313.084.617.161.914.234l-.468 1.844 1.146.28.476-1.869c1.955.364 3.426.217 4.044-1.52.5-1.398-.023-2.204-1.052-2.732.748-.17 1.314-.652 1.463-1.652"/>
    </g>
</svg>
