<svg xmlns="http://www.w3.org/2000/svg" width="20" height="20" viewBox="0 0 20 20">
  <path d="M10 0c5.5 0 10 4.5 10 10s-4.5 10-10 10S0 15.5 0 10 4.5 0 10 0" fill="#53AE94"/>
  <path d="M11.2 8.7V7.2h3.4V4.9H5.4V7.2h3.4v1.5C6 8.8 3.9 9.3 3.9 10c0 0.7 2.1 1.2 4.8 1.3v4.8h2.5v-4.8c2.8-0.1 4.8-0.7 4.8-1.3S14 8.8 11.2 8.7M11.2 10.9v0c-0.1 0-0.4 0-1.2 0 -0.6 0-1.1 0-1.2 0v0C6.3 10.8 4.5 10.4 4.5 9.9c0-0.5 1.8-0.9 4.3-1v1.7c0.2 0 0.6 0 1.2 0 0.8 0 1.1 0 1.2 0V8.8c2.4 0.1 4.3 0.5 4.3 1C15.5 10.4 13.7 10.8 11.2 10.9" fill="#FFF"/>
</svg>