<svg xmlns="http://www.w3.org/2000/svg" width="20" height="20" viewBox="0 0 20 20">
    <defs>
        <linearGradient id="yr94hwb02a" x1="4.413%" x2="100%" y1="0%" y2="100%">
            <stop offset="0%" stop-color="#FFF"/>
            <stop offset="100%" stop-color="#D4D3E4"/>
        </linearGradient>
    </defs>
    <g fill="none" fill-rule="evenodd">
        <g>
            <circle cx="10" cy="10" r="10" fill="url(#yr94hwb02a)"/>
            <path fill="#434161" d="M11.017 9.118V7.883h2.803V6H6.19v1.883H8.99v1.235C6.713 9.223 5 9.678 5 10.223c0 .545 1.713 1 3.991 1.106v3.957h2.026v-3.959c2.273-.105 3.983-.56 3.983-1.104 0-.545-1.709-1-3.983-1.105zm0 1.874c-.056.004-.35.022-1.005.022-.52 0-.89-.016-1.02-.022-2.013-.09-3.516-.443-3.516-.866S6.98 9.35 8.992 9.26v1.38c.131.01.508.032 1.03.032.624 0 .937-.027.993-.032V9.26c2.01.09 3.508.444 3.508.866s-1.498.775-3.508.865h.002z"/>
        </g>
    </g>
</svg>
